<svg xmlns="http://www.w3.org/2000/svg" viewBox="0 0 346.5 178"><defs><style>.cls-1{fill:#fff;}.cls-2{fill:#ffc72f;}.cls-3{fill:#00b8b0;}.cls-4{fill:#f06098;}.cls-5{fill:#33a3dc;}.cls-6{fill:#91c84c;}.cls-7{fill:#0074bc;}.cls-8{fill:#b6b8ba;}</style></defs><title>2</title><g id="Layer_1" data-name="Layer 1"><path class="cls-1" d="M112.07,66.85A20,20,0,0,0,98.88,48a28.11,28.11,0,0,0,.53-5.44A28.62,28.62,0,0,0,47.58,25.84,15.2,15.2,0,0,0,24,43.15,20.2,20.2,0,0,0,10.73,62,20,20,0,0,0,24,80.9a28.53,28.53,0,0,0,28,34A28.46,28.46,0,0,0,75.21,103,15.18,15.18,0,0,0,98.77,85.73a20.2,20.2,0,0,0,13.3-18.88"/><path class="cls-2" d="M50.57,57.43,72.75,67.54l22.37-19.6A25,25,0,0,0,50,28.89l-3.72,19.3Z"/><path class="cls-3" d="M27.62,80.92a25.67,25.67,0,0,0-.49,5A25.07,25.07,0,0,0,72.94,100l3.69-19.25L71.7,71.34,49.44,61.2Z"/><path class="cls-4" d="M27.48,42.54l15.2,3.59L46,28.86A12,12,0,0,0,27.48,42.54"/><path class="cls-5" d="M26.16,46.16a16.76,16.76,0,0,0-.72,31.58L46.76,58.46,42.84,50.1Z"/><path class="cls-6" d="M76.83,100a11.94,11.94,0,0,0,19.22-9.49,12.07,12.07,0,0,0-.73-4.17L80.14,82.79Z"/><path class="cls-7" d="M79.92,78.81l16.72,3.9A16.9,16.9,0,0,0,108.15,66.8a16.72,16.72,0,0,0-10.8-15.63L75.48,70.32Z"/><path class="cls-1" d="M156.11,86.3l2.34-.24.17,4.77a115.55,115.55,0,0,1-15.8,1.3q-8.74,0-12.4-5.06t-3.64-15.76q0-21.3,16.93-21.31,8.19,0,12.23,4.58T160,69l-.32,4.62H132.94q0,6.72,2.43,10t8.46,3.24q6,0,12.28-.48m-2.19-17.58q0-7.45-2.39-10.53c-1.6-2.06-4.19-3.08-7.78-3.08s-6.29,1.08-8.1,3.24-2.74,5.62-2.8,10.37Z"/><rect class="cls-1" x="168.47" y="38.5" width="6.08" height="53.32"/><path class="cls-1" d="M212.81,63.05V83.48c0,2,5,1.94,5,1.94l-.31,5.37c-4.27,0-7.8.36-9.92-1.7a35.35,35.35,0,0,1-14.58,3c-3.73,0-6.56-1-8.51-3.16s-2.91-5.13-2.91-9.07,1-6.85,3-8.71,5.14-3,9.4-3.44l12.72-1.22V63.05c0-2.76-.6-4.73-1.78-5.92a6.6,6.6,0,0,0-4.86-1.78h-16V50h15.56q6.88,0,10,3.16t3.12,9.89m-25,16.52Q187.85,87,194,87a32.65,32.65,0,0,0,10.86-1.87l1.86-.64V71.15l-12,1.13c-2.43.22-4.19.92-5.26,2.11a7.42,7.42,0,0,0-1.63,5.18"/><path class="cls-1" d="M236.52,55.43q-8.84,0-8.83,6.16a4.25,4.25,0,0,0,2,4q2,1.17,9.24,2.43t10.21,3.52c2,1.52,3,4.35,3,8.51s-1.34,7.21-4,9.16-6.58,2.91-11.71,2.91c-3.35,0-14.53-1.24-14.53-1.24l.33-5.27c6.42.62,11.07,1.08,14.2,1.08s5.52-.5,7.17-1.5,2.47-2.67,2.47-5-.7-3.94-2.11-4.78-4.48-1.63-9.23-2.39-8.13-1.86-10.13-3.32-3-4.16-3-8.1,1.39-6.86,4.18-8.75A18.1,18.1,0,0,1,236.2,50c3.29,0,14.72.84,14.72.84v5.3c-6-.28-10.94-.71-14.4-.71"/><path class="cls-1" d="M281.46,56.08H268.58V75.44c0,4.65.33,7.7,1,9.15s2.28,2.19,4.82,2.19l7.21-.48.41,5a56,56,0,0,1-8.27.89c-4.21,0-7.12-1-8.75-3.08s-2.43-6-2.43-11.74V56.08h-5.75V50.81h5.75V38.42h6V50.81h12.88Z"/><path class="cls-1" d="M289.91,38.59H296v7h-6.07Zm0,12.22H296v41h-6.07Z"/><path class="cls-1" d="M322.3,50a69.94,69.94,0,0,1,9.07,1l1.95.24-.25,4.94a93.77,93.77,0,0,0-9.56-.73c-4.58,0-7.71,1.1-9.35,3.28s-2.47,6.24-2.47,12.16.77,10,2.31,12.35,4.74,3.48,9.6,3.48l9.56-.73.24,5a84.18,84.18,0,0,1-11.26,1.13q-9.48,0-13.08-4.86t-3.61-16.4q0-11.55,3.89-16.21t13-4.66"/><path class="cls-8" d="M37.44,149.93a2.39,2.39,0,0,0-1-1.78,3.91,3.91,0,0,0-2.34-.63,4.7,4.7,0,0,0-1.7.27,2.47,2.47,0,0,0-1.06.78,1.82,1.82,0,0,0-.36,1.11,1.6,1.6,0,0,0,.22.91,2.25,2.25,0,0,0,.67.67,4.81,4.81,0,0,0,1,.49,9.79,9.79,0,0,0,1.19.34l1.74.42a12.73,12.73,0,0,1,2.33.75A7.24,7.24,0,0,1,40,154.43a4.86,4.86,0,0,1,1.21,1.63,5.59,5.59,0,0,1-.47,5.23,5.66,5.66,0,0,1-2.57,2,10.26,10.26,0,0,1-4,.72,10.64,10.64,0,0,1-4.09-.72,6,6,0,0,1-2.71-2.14,6.3,6.3,0,0,1-1-3.51h4a3,3,0,0,0,.56,1.63,3.1,3.1,0,0,0,1.34,1,5.15,5.15,0,0,0,1.9.33,5,5,0,0,0,1.81-.3,2.8,2.8,0,0,0,1.2-.85,1.91,1.91,0,0,0,.43-1.24,1.67,1.67,0,0,0-.38-1.1,2.89,2.89,0,0,0-1.12-.75,11.32,11.32,0,0,0-1.8-.57l-2.11-.53a9,9,0,0,1-3.88-1.87A4.38,4.38,0,0,1,26.8,150a5.08,5.08,0,0,1,.95-3.08,6.26,6.26,0,0,1,2.62-2.06,9.29,9.29,0,0,1,3.79-.74,9,9,0,0,1,3.77.74,6.07,6.07,0,0,1,2.52,2.06,5.43,5.43,0,0,1,.92,3.05Z"/><path class="cls-8" d="M50.94,164a7.74,7.74,0,0,1-3.86-.92,6.28,6.28,0,0,1-2.49-2.59,9.47,9.47,0,0,1,0-7.93A6.53,6.53,0,0,1,47.05,150a7.16,7.16,0,0,1,3.73-1,7.64,7.64,0,0,1,2.69.46,6,6,0,0,1,2.17,1.38,6.18,6.18,0,0,1,1.46,2.31,9.1,9.1,0,0,1,.52,3.24v1.11H45.33V155h8.49a3,3,0,0,0-.38-1.55,2.76,2.76,0,0,0-1-1.05,3.29,3.29,0,0,0-3.18,0,3,3,0,0,0-1.1,1.12,3.22,3.22,0,0,0-.41,1.57v2.38a4.19,4.19,0,0,0,.4,1.87,2.92,2.92,0,0,0,1.15,1.21A3.46,3.46,0,0,0,51,161a3.69,3.69,0,0,0,1.23-.2,2.44,2.44,0,0,0,1.56-1.49l3.74.24a5.07,5.07,0,0,1-1.17,2.35,5.84,5.84,0,0,1-2.25,1.55,8.47,8.47,0,0,1-3.18.56"/><path class="cls-8" d="M64.4,164a6,6,0,0,1-2.48-.49,4,4,0,0,1-1.72-1.45,4.29,4.29,0,0,1-.63-2.4,4.22,4.22,0,0,1,.45-2,3.6,3.6,0,0,1,1.21-1.33,5.9,5.9,0,0,1,1.75-.75,13.2,13.2,0,0,1,2.06-.36c.85-.09,1.53-.17,2-.25a2.81,2.81,0,0,0,1.12-.36.78.78,0,0,0,.35-.7v-.06a1.76,1.76,0,0,0-.56-1.39,2.34,2.34,0,0,0-1.6-.49,2.84,2.84,0,0,0-1.73.48,2.25,2.25,0,0,0-.85,1.2l-3.74-.31A5.13,5.13,0,0,1,61.2,151a5.35,5.35,0,0,1,2.16-1.5,8.24,8.24,0,0,1,3.06-.53,9.85,9.85,0,0,1,2.33.28,6.15,6.15,0,0,1,2,.89,4.29,4.29,0,0,1,1.37,1.53,4.68,4.68,0,0,1,.5,2.23v9.81H68.77v-2h-.11a4.07,4.07,0,0,1-.94,1.2,4.24,4.24,0,0,1-1.41.81,5.85,5.85,0,0,1-1.91.29m1.16-2.79a3.43,3.43,0,0,0,1.57-.35,2.7,2.7,0,0,0,1.07-1,2.52,2.52,0,0,0,.39-1.38V157a2.5,2.5,0,0,1-.51.22,6.18,6.18,0,0,1-.74.18l-.81.14-.74.11a5,5,0,0,0-1.24.33,2,2,0,0,0-.83.61,1.59,1.59,0,0,0-.29,1,1.44,1.44,0,0,0,.6,1.25,2.54,2.54,0,0,0,1.53.43"/><path class="cls-8" d="M75.73,163.75V149.2h3.92v2.54h.15a3.73,3.73,0,0,1,1.34-2.05,3.47,3.47,0,0,1,2.16-.7c.2,0,.41,0,.65,0s.44.06.61.1v3.59a4.31,4.31,0,0,0-.78-.15,6.26,6.26,0,0,0-.92-.07,3.34,3.34,0,0,0-1.59.38,2.9,2.9,0,0,0-1.1,1.07,3.1,3.1,0,0,0-.4,1.57v8.23Z"/><path class="cls-8" d="M92.53,164a7.35,7.35,0,0,1-3.84-1,6.27,6.27,0,0,1-2.46-2.64,8.62,8.62,0,0,1-.86-3.91,8.45,8.45,0,0,1,.87-3.92A6.42,6.42,0,0,1,88.7,150a7.38,7.38,0,0,1,3.81-1,7.64,7.64,0,0,1,3.34.69,5.51,5.51,0,0,1,2.26,2,5.68,5.68,0,0,1,.92,2.93H95.22a3,3,0,0,0-.85-1.76,2.47,2.47,0,0,0-1.79-.66,2.77,2.77,0,0,0-1.64.5,3.31,3.31,0,0,0-1.08,1.48,6.22,6.22,0,0,0-.39,2.34,6.61,6.61,0,0,0,.38,2.37,3.25,3.25,0,0,0,1.09,1.48,2.91,2.91,0,0,0,2.89.23,2.41,2.41,0,0,0,.91-.83,3.11,3.11,0,0,0,.48-1.31H99a5.92,5.92,0,0,1-.9,2.93,5.67,5.67,0,0,1-2.24,2,7.44,7.44,0,0,1-3.36.71"/><path class="cls-8" d="M105.66,155.34v8.41h-4v-19.4h3.92v7.42h.17a4.11,4.11,0,0,1,1.59-2,4.85,4.85,0,0,1,2.76-.74,5.12,5.12,0,0,1,2.64.66,4.49,4.49,0,0,1,1.77,1.89,6.31,6.31,0,0,1,.62,2.93v9.26h-4v-8.54a3,3,0,0,0-.67-2.1,2.47,2.47,0,0,0-1.92-.74,2.9,2.9,0,0,0-1.46.35,2.45,2.45,0,0,0-1,1,3.48,3.48,0,0,0-.37,1.61"/><path class="cls-8" d="M120.64,164a2.14,2.14,0,0,1-1.6-.67,2.26,2.26,0,0,1,1.6-3.86,2.29,2.29,0,0,1,2.27,2.26,2.17,2.17,0,0,1-.31,1.14,2.5,2.5,0,0,1-.83.82,2.11,2.11,0,0,1-1.13.31"/><path class="cls-8" d="M142.1,149.93a2.4,2.4,0,0,0-1-1.78,3.87,3.87,0,0,0-2.34-.63,4.64,4.64,0,0,0-1.69.27,2.41,2.41,0,0,0-1.06.78,1.82,1.82,0,0,0-.36,1.11,1.52,1.52,0,0,0,.22.91,2.14,2.14,0,0,0,.67.67,4.72,4.72,0,0,0,1,.49,9.46,9.46,0,0,0,1.2.34l1.74.42a13,13,0,0,1,2.33.75,7.24,7.24,0,0,1,1.84,1.17,4.83,4.83,0,0,1,1.2,1.63,5.19,5.19,0,0,1,.45,2.15,5.33,5.33,0,0,1-.91,3.08,5.74,5.74,0,0,1-2.58,2,10.26,10.26,0,0,1-4.05.72,10.62,10.62,0,0,1-4.08-.72,6,6,0,0,1-2.72-2.14,6.37,6.37,0,0,1-1-3.51h4a3,3,0,0,0,.56,1.63,3,3,0,0,0,1.34,1,5.11,5.11,0,0,0,1.9.33,5,5,0,0,0,1.81-.3,2.93,2.93,0,0,0,1.2-.85,2,2,0,0,0,.42-1.24,1.62,1.62,0,0,0-.38-1.1,2.82,2.82,0,0,0-1.12-.75,11.51,11.51,0,0,0-1.79-.57l-2.12-.53a9,9,0,0,1-3.87-1.87,4.32,4.32,0,0,1-1.41-3.42,5.07,5.07,0,0,1,.94-3.08,6.39,6.39,0,0,1,2.62-2.06,9.29,9.29,0,0,1,3.79-.74,9,9,0,0,1,3.77.74,6,6,0,0,1,2.52,2.06,5.44,5.44,0,0,1,.93,3.05Z"/><path class="cls-8" d="M155.54,164a7.38,7.38,0,0,1-3.81-.95,6.36,6.36,0,0,1-2.48-2.63,9.33,9.33,0,0,1,0-7.87,6.3,6.3,0,0,1,2.48-2.63,8.12,8.12,0,0,1,7.62,0,6.3,6.3,0,0,1,2.48,2.63,9.33,9.33,0,0,1,0,7.87,6.36,6.36,0,0,1-2.48,2.63,7.38,7.38,0,0,1-3.81.95m0-3.13a2.51,2.51,0,0,0,1.68-.57,3.67,3.67,0,0,0,1-1.57,7.71,7.71,0,0,0,0-4.53,3.61,3.61,0,0,0-1-1.57,2.52,2.52,0,0,0-1.68-.58,2.57,2.57,0,0,0-1.7.58,3.46,3.46,0,0,0-1,1.57,7.5,7.5,0,0,0,0,4.53,3.51,3.51,0,0,0,1,1.57,2.57,2.57,0,0,0,1.7.57"/><rect class="cls-8" x="165.34" y="144.35" width="4.04" height="19.4"/><polygon class="cls-8" points="186.16 149.2 181.07 163.75 176.52 163.75 171.44 149.2 175.7 149.2 178.72 159.61 178.88 159.61 181.89 149.2 186.16 149.2"/><path class="cls-8" d="M194.37,164a7.74,7.74,0,0,1-3.86-.92,6.2,6.2,0,0,1-2.48-2.59,9.47,9.47,0,0,1,0-7.93,6.34,6.34,0,0,1,2.46-2.64,7.12,7.12,0,0,1,3.72-1,7.64,7.64,0,0,1,2.69.46,6.13,6.13,0,0,1,2.18,1.38,6.28,6.28,0,0,1,1.45,2.31,9.1,9.1,0,0,1,.52,3.24v1.11H188.77V155h8.48a3.14,3.14,0,0,0-.37-1.55,2.86,2.86,0,0,0-1-1.05,3,3,0,0,0-1.55-.39,3.08,3.08,0,0,0-1.63.43,3,3,0,0,0-1.1,1.12,3.33,3.33,0,0,0-.41,1.57v2.38a4.06,4.06,0,0,0,.41,1.87,2.83,2.83,0,0,0,1.14,1.21,3.46,3.46,0,0,0,1.75.43,3.69,3.69,0,0,0,1.23-.2,2.49,2.49,0,0,0,1.57-1.49l3.72.24a5,5,0,0,1-1.15,2.35,6,6,0,0,1-2.26,1.55,8.44,8.44,0,0,1-3.18.56"/><path class="cls-8" d="M206.05,164a2.26,2.26,0,0,1-1.61-3.87,2.2,2.2,0,0,1,1.61-.66,2.23,2.23,0,0,1,1.59.66,2.21,2.21,0,0,1,.36,2.74,2.33,2.33,0,0,1-.83.82,2.1,2.1,0,0,1-1.12.31"/><path class="cls-8" d="M227.5,149.93a2.39,2.39,0,0,0-1-1.78,3.91,3.91,0,0,0-2.34-.63,4.7,4.7,0,0,0-1.7.27,2.38,2.38,0,0,0-1.05.78,1.77,1.77,0,0,0-.37,1.11,1.6,1.6,0,0,0,.22.91,2.37,2.37,0,0,0,.67.67,4.81,4.81,0,0,0,1,.49,9.79,9.79,0,0,0,1.19.34l1.74.42a12.48,12.48,0,0,1,2.33.75,7.06,7.06,0,0,1,1.84,1.17,4.86,4.86,0,0,1,1.21,1.63,5,5,0,0,1,.44,2.15,5.33,5.33,0,0,1-.9,3.08,5.74,5.74,0,0,1-2.58,2,10.26,10.26,0,0,1-4.05.72,10.64,10.64,0,0,1-4.09-.72,6,6,0,0,1-2.71-2.14,6.46,6.46,0,0,1-1-3.51h4a3,3,0,0,0,.57,1.63,3,3,0,0,0,1.33,1,5.19,5.19,0,0,0,1.9.33,4.94,4.94,0,0,0,1.81-.3,2.8,2.8,0,0,0,1.2-.85,1.91,1.91,0,0,0,.43-1.24,1.67,1.67,0,0,0-.38-1.1,2.89,2.89,0,0,0-1.12-.75,11.32,11.32,0,0,0-1.8-.57l-2.11-.53a9,9,0,0,1-3.87-1.87,4.32,4.32,0,0,1-1.41-3.42,5,5,0,0,1,.94-3.08,6.26,6.26,0,0,1,2.62-2.06,9.29,9.29,0,0,1,3.79-.74,9,9,0,0,1,3.77.74,6.07,6.07,0,0,1,2.52,2.06,5.44,5.44,0,0,1,.93,3.05Z"/><path class="cls-8" d="M243.7,157.56V149.2h4v14.55h-3.88v-2.64h-.15a4.27,4.27,0,0,1-1.63,2,4.81,4.81,0,0,1-2.78.78,4.94,4.94,0,0,1-2.57-.66,4.53,4.53,0,0,1-1.73-1.89,6.55,6.55,0,0,1-.63-2.92V149.2h4v8.55a2.92,2.92,0,0,0,.69,2,2.35,2.35,0,0,0,1.83.75,2.8,2.8,0,0,0,1.36-.34,2.51,2.51,0,0,0,1-1,3.11,3.11,0,0,0,.38-1.64"/><path class="cls-8" d="M257.53,164a7.35,7.35,0,0,1-3.84-1,6.27,6.27,0,0,1-2.46-2.64,8.62,8.62,0,0,1-.86-3.91,8.45,8.45,0,0,1,.87-3.92,6.45,6.45,0,0,1,2.47-2.65,7.31,7.31,0,0,1,3.8-1,7.6,7.6,0,0,1,3.34.69,5.51,5.51,0,0,1,2.26,2,5.58,5.58,0,0,1,.92,2.93h-3.81a3,3,0,0,0-.84-1.76,2.5,2.5,0,0,0-1.8-.66,2.74,2.74,0,0,0-1.63.5,3.25,3.25,0,0,0-1.09,1.48,6.22,6.22,0,0,0-.39,2.34,6.39,6.39,0,0,0,.39,2.37,3.16,3.16,0,0,0,1.08,1.48,2.73,2.73,0,0,0,1.64.51,2.7,2.7,0,0,0,1.25-.28,2.41,2.41,0,0,0,.91-.83,3,3,0,0,0,.48-1.31H264a5.92,5.92,0,0,1-.9,2.93,5.58,5.58,0,0,1-2.23,2,7.51,7.51,0,0,1-3.37.71"/><path class="cls-8" d="M273.2,164a7.37,7.37,0,0,1-3.84-1,6.27,6.27,0,0,1-2.46-2.64,8.62,8.62,0,0,1-.86-3.91,8.45,8.45,0,0,1,.87-3.92,6.45,6.45,0,0,1,2.47-2.65,7.34,7.34,0,0,1,3.8-1,7.6,7.6,0,0,1,3.34.69,5.51,5.51,0,0,1,2.26,2,5.58,5.58,0,0,1,.92,2.93h-3.8a3.08,3.08,0,0,0-.85-1.76,2.5,2.5,0,0,0-1.8-.66,2.74,2.74,0,0,0-1.63.5,3.25,3.25,0,0,0-1.09,1.48,6.24,6.24,0,0,0-.38,2.34,6.4,6.4,0,0,0,.38,2.37,3.16,3.16,0,0,0,1.08,1.48,2.73,2.73,0,0,0,1.64.51,2.7,2.7,0,0,0,1.25-.28,2.41,2.41,0,0,0,.91-.83,3.11,3.11,0,0,0,.49-1.31h3.8a5.92,5.92,0,0,1-.9,2.93,5.58,5.58,0,0,1-2.23,2,7.51,7.51,0,0,1-3.37.71"/><path class="cls-8" d="M288.93,164a7.71,7.71,0,0,1-3.86-.92,6.16,6.16,0,0,1-2.49-2.59,9.47,9.47,0,0,1,0-7.93A6.4,6.4,0,0,1,285,150a7.16,7.16,0,0,1,3.73-1,7.58,7.58,0,0,1,2.68.46,6,6,0,0,1,2.18,1.38,6.18,6.18,0,0,1,1.46,2.31,9.33,9.33,0,0,1,.52,3.24v1.11H283.32V155h8.49a3.15,3.15,0,0,0-.38-1.55,2.72,2.72,0,0,0-1.05-1.05,3.27,3.27,0,0,0-3.17,0,3,3,0,0,0-1.1,1.12,3.22,3.22,0,0,0-.41,1.57v2.38a4.06,4.06,0,0,0,.4,1.87,3,3,0,0,0,1.14,1.21A3.53,3.53,0,0,0,289,161a3.73,3.73,0,0,0,1.23-.2,2.51,2.51,0,0,0,1.56-1.49l3.73.24a5.06,5.06,0,0,1-1.16,2.35,5.84,5.84,0,0,1-2.25,1.55,8.47,8.47,0,0,1-3.18.56"/><path class="cls-8" d="M304.87,164a7.67,7.67,0,0,1-3.85-.92,6.16,6.16,0,0,1-2.49-2.59,9.47,9.47,0,0,1,0-7.93A6.4,6.4,0,0,1,301,150a7.13,7.13,0,0,1,3.73-1,7.62,7.62,0,0,1,2.68.46,6.13,6.13,0,0,1,2.18,1.38,6.28,6.28,0,0,1,1.45,2.31,9.09,9.09,0,0,1,.53,3.24v1.11H299.27V155h8.48a3.14,3.14,0,0,0-.37-1.55,2.86,2.86,0,0,0-1.05-1.05,3.27,3.27,0,0,0-3.17,0,3,3,0,0,0-1.11,1.12,3.33,3.33,0,0,0-.41,1.57v2.38a4.06,4.06,0,0,0,.41,1.87,2.89,2.89,0,0,0,1.14,1.21,3.46,3.46,0,0,0,1.75.43,3.69,3.69,0,0,0,1.23-.2,2.39,2.39,0,0,0,1-.57,2.47,2.47,0,0,0,.61-.92l3.73.24a5.15,5.15,0,0,1-1.16,2.35,6,6,0,0,1-2.26,1.55,8.44,8.44,0,0,1-3.18.56"/><path class="cls-8" d="M319.55,164a5.45,5.45,0,0,1-3-.86,5.81,5.81,0,0,1-2.12-2.53,11.22,11.22,0,0,1,0-8.27,5.76,5.76,0,0,1,2.15-2.49,5.49,5.49,0,0,1,2.94-.83,4.57,4.57,0,0,1,2,.41,4.11,4.11,0,0,1,1.33,1,5,5,0,0,1,.77,1.2h.12v-7.3h4v19.4h-4v-2.33h-.17a5.12,5.12,0,0,1-.8,1.2,3.92,3.92,0,0,1-1.34,1,4.58,4.58,0,0,1-2,.39m1.28-3.21a2.56,2.56,0,0,0,1.65-.54,3.29,3.29,0,0,0,1-1.5,6.23,6.23,0,0,0,.37-2.26,6.42,6.42,0,0,0-.36-2.26,3.28,3.28,0,0,0-1-1.48,2.71,2.71,0,0,0-1.66-.52,2.62,2.62,0,0,0-1.68.54,3.31,3.31,0,0,0-1,1.5,6.31,6.31,0,0,0-.35,2.22,6.71,6.71,0,0,0,.35,2.24,3.35,3.35,0,0,0,1,1.51,2.53,2.53,0,0,0,1.67.55"/><path class="cls-8" d="M333.5,164a2.26,2.26,0,0,1-1.61-3.87,2.26,2.26,0,0,1,3.19,0,2.16,2.16,0,0,1,.69,1.6,2.18,2.18,0,0,1-.32,1.14,2.41,2.41,0,0,1-.83.82,2.1,2.1,0,0,1-1.12.31"/></g></svg>